<mxfile host="Electron" modified="2023-12-13T15:41:19.914Z" agent="Mozilla/5.0 (Macintosh; Intel Mac OS X 10_15_7) AppleWebKit/537.36 (KHTML, like Gecko) draw.io/22.1.2 Chrome/114.0.5735.289 Electron/25.9.4 Safari/537.36" etag="RWk77giTCM_5eSjATJAF" version="22.1.2" type="device">
  <diagram name="Page-1" id="zR1Gwsv29ML30f1sgvBj">
    <mxGraphModel dx="954" dy="674" grid="1" gridSize="10" guides="1" tooltips="1" connect="1" arrows="1" fold="1" page="1" pageScale="1" pageWidth="850" pageHeight="1100" math="0" shadow="0">
      <root>
        <mxCell id="0" />
        <mxCell id="1" parent="0" />
        <mxCell id="lJbvdJSCI-_qhn2ZmLNF-1" value="&lt;font style=&quot;font-size: 22px;&quot;&gt;S&lt;/font&gt;" style="ellipse;whiteSpace=wrap;html=1;aspect=fixed;" parent="1" vertex="1">
          <mxGeometry x="310" y="80" width="40" height="40" as="geometry" />
        </mxCell>
        <mxCell id="lJbvdJSCI-_qhn2ZmLNF-2" value="&lt;font style=&quot;font-size: 22px;&quot;&gt;E&lt;/font&gt;" style="ellipse;whiteSpace=wrap;html=1;aspect=fixed;" parent="1" vertex="1">
          <mxGeometry x="210" y="160" width="40" height="40" as="geometry" />
        </mxCell>
        <mxCell id="lJbvdJSCI-_qhn2ZmLNF-3" value="&lt;font style=&quot;font-size: 22px;&quot;&gt;A&lt;/font&gt;" style="ellipse;whiteSpace=wrap;html=1;aspect=fixed;" parent="1" vertex="1">
          <mxGeometry x="470" y="170" width="40" height="40" as="geometry" />
        </mxCell>
        <mxCell id="lJbvdJSCI-_qhn2ZmLNF-4" value="&lt;font style=&quot;font-size: 22px;&quot;&gt;C&lt;/font&gt;" style="ellipse;whiteSpace=wrap;html=1;aspect=fixed;" parent="1" vertex="1">
          <mxGeometry x="360" y="370" width="40" height="40" as="geometry" />
        </mxCell>
        <mxCell id="lJbvdJSCI-_qhn2ZmLNF-5" value="&lt;font style=&quot;font-size: 22px;&quot;&gt;D&lt;/font&gt;" style="ellipse;whiteSpace=wrap;html=1;aspect=fixed;" parent="1" vertex="1">
          <mxGeometry x="200" y="290" width="40" height="40" as="geometry" />
        </mxCell>
        <mxCell id="lJbvdJSCI-_qhn2ZmLNF-6" value="&lt;font style=&quot;font-size: 22px;&quot;&gt;B&lt;/font&gt;" style="ellipse;whiteSpace=wrap;html=1;aspect=fixed;" parent="1" vertex="1">
          <mxGeometry x="530" y="320" width="40" height="40" as="geometry" />
        </mxCell>
        <mxCell id="lJbvdJSCI-_qhn2ZmLNF-8" value="" style="endArrow=classic;html=1;rounded=0;" parent="1" source="lJbvdJSCI-_qhn2ZmLNF-1" target="lJbvdJSCI-_qhn2ZmLNF-2" edge="1">
          <mxGeometry width="50" height="50" relative="1" as="geometry">
            <mxPoint x="740" y="590" as="sourcePoint" />
            <mxPoint x="790" y="540" as="targetPoint" />
          </mxGeometry>
        </mxCell>
        <mxCell id="lJbvdJSCI-_qhn2ZmLNF-9" value="&lt;font style=&quot;font-size: 22px;&quot;&gt;8&lt;/font&gt;" style="edgeLabel;html=1;align=center;verticalAlign=middle;resizable=0;points=[];" parent="lJbvdJSCI-_qhn2ZmLNF-8" vertex="1" connectable="0">
          <mxGeometry x="-0.3107" y="-3" relative="1" as="geometry">
            <mxPoint as="offset" />
          </mxGeometry>
        </mxCell>
        <mxCell id="lJbvdJSCI-_qhn2ZmLNF-10" value="" style="endArrow=classic;html=1;rounded=0;" parent="1" source="lJbvdJSCI-_qhn2ZmLNF-1" target="lJbvdJSCI-_qhn2ZmLNF-3" edge="1">
          <mxGeometry width="50" height="50" relative="1" as="geometry">
            <mxPoint x="330" y="97" as="sourcePoint" />
            <mxPoint x="204" y="196" as="targetPoint" />
          </mxGeometry>
        </mxCell>
        <mxCell id="lJbvdJSCI-_qhn2ZmLNF-11" value="&lt;font style=&quot;font-size: 22px;&quot;&gt;10&lt;/font&gt;" style="edgeLabel;html=1;align=center;verticalAlign=middle;resizable=0;points=[];" parent="lJbvdJSCI-_qhn2ZmLNF-10" vertex="1" connectable="0">
          <mxGeometry x="-0.3107" y="-3" relative="1" as="geometry">
            <mxPoint as="offset" />
          </mxGeometry>
        </mxCell>
        <mxCell id="lJbvdJSCI-_qhn2ZmLNF-12" value="" style="endArrow=classic;html=1;rounded=0;entryX=0.675;entryY=-0.012;entryDx=0;entryDy=0;entryPerimeter=0;" parent="1" source="lJbvdJSCI-_qhn2ZmLNF-2" target="lJbvdJSCI-_qhn2ZmLNF-5" edge="1">
          <mxGeometry width="50" height="50" relative="1" as="geometry">
            <mxPoint x="180" y="220" as="sourcePoint" />
            <mxPoint x="332" y="292" as="targetPoint" />
          </mxGeometry>
        </mxCell>
        <mxCell id="lJbvdJSCI-_qhn2ZmLNF-13" value="&lt;font style=&quot;font-size: 22px;&quot;&gt;1&lt;/font&gt;" style="edgeLabel;html=1;align=center;verticalAlign=middle;resizable=0;points=[];" parent="lJbvdJSCI-_qhn2ZmLNF-12" vertex="1" connectable="0">
          <mxGeometry x="-0.3107" y="-3" relative="1" as="geometry">
            <mxPoint as="offset" />
          </mxGeometry>
        </mxCell>
        <mxCell id="lJbvdJSCI-_qhn2ZmLNF-14" value="" style="endArrow=classic;html=1;rounded=0;" parent="1" source="lJbvdJSCI-_qhn2ZmLNF-3" target="lJbvdJSCI-_qhn2ZmLNF-6" edge="1">
          <mxGeometry width="50" height="50" relative="1" as="geometry">
            <mxPoint x="192" y="230" as="sourcePoint" />
            <mxPoint x="207" y="380" as="targetPoint" />
          </mxGeometry>
        </mxCell>
        <mxCell id="lJbvdJSCI-_qhn2ZmLNF-15" value="&lt;font style=&quot;font-size: 22px;&quot;&gt;1&lt;/font&gt;" style="edgeLabel;html=1;align=center;verticalAlign=middle;resizable=0;points=[];" parent="lJbvdJSCI-_qhn2ZmLNF-14" vertex="1" connectable="0">
          <mxGeometry x="-0.3107" y="-3" relative="1" as="geometry">
            <mxPoint as="offset" />
          </mxGeometry>
        </mxCell>
        <mxCell id="lJbvdJSCI-_qhn2ZmLNF-17" value="" style="endArrow=classic;html=1;rounded=0;" parent="1" source="lJbvdJSCI-_qhn2ZmLNF-5" target="lJbvdJSCI-_qhn2ZmLNF-3" edge="1">
          <mxGeometry width="50" height="50" relative="1" as="geometry">
            <mxPoint x="192" y="230" as="sourcePoint" />
            <mxPoint x="207" y="380" as="targetPoint" />
          </mxGeometry>
        </mxCell>
        <mxCell id="lJbvdJSCI-_qhn2ZmLNF-18" value="&lt;font style=&quot;font-size: 22px;&quot;&gt;-4&lt;/font&gt;" style="edgeLabel;html=1;align=center;verticalAlign=middle;resizable=0;points=[];" parent="lJbvdJSCI-_qhn2ZmLNF-17" vertex="1" connectable="0">
          <mxGeometry x="-0.3107" y="-3" relative="1" as="geometry">
            <mxPoint as="offset" />
          </mxGeometry>
        </mxCell>
        <mxCell id="lJbvdJSCI-_qhn2ZmLNF-19" value="" style="endArrow=classic;html=1;rounded=0;" parent="1" source="lJbvdJSCI-_qhn2ZmLNF-5" target="lJbvdJSCI-_qhn2ZmLNF-4" edge="1">
          <mxGeometry width="50" height="50" relative="1" as="geometry">
            <mxPoint x="217" y="389" as="sourcePoint" />
            <mxPoint x="513" y="191" as="targetPoint" />
          </mxGeometry>
        </mxCell>
        <mxCell id="lJbvdJSCI-_qhn2ZmLNF-20" value="&lt;font style=&quot;font-size: 22px;&quot;&gt;-1&lt;/font&gt;" style="edgeLabel;html=1;align=center;verticalAlign=middle;resizable=0;points=[];" parent="lJbvdJSCI-_qhn2ZmLNF-19" vertex="1" connectable="0">
          <mxGeometry x="-0.3107" y="-3" relative="1" as="geometry">
            <mxPoint as="offset" />
          </mxGeometry>
        </mxCell>
        <mxCell id="lJbvdJSCI-_qhn2ZmLNF-21" value="" style="endArrow=classic;html=1;rounded=0;" parent="1" source="lJbvdJSCI-_qhn2ZmLNF-4" target="lJbvdJSCI-_qhn2ZmLNF-6" edge="1">
          <mxGeometry width="50" height="50" relative="1" as="geometry">
            <mxPoint x="410" y="370" as="sourcePoint" />
            <mxPoint x="550" y="402" as="targetPoint" />
          </mxGeometry>
        </mxCell>
        <mxCell id="lJbvdJSCI-_qhn2ZmLNF-22" value="&lt;font style=&quot;font-size: 22px;&quot;&gt;-2&lt;/font&gt;" style="edgeLabel;html=1;align=center;verticalAlign=middle;resizable=0;points=[];" parent="lJbvdJSCI-_qhn2ZmLNF-21" vertex="1" connectable="0">
          <mxGeometry x="-0.3107" y="-3" relative="1" as="geometry">
            <mxPoint as="offset" />
          </mxGeometry>
        </mxCell>
        <mxCell id="lJbvdJSCI-_qhn2ZmLNF-23" value="" style="endArrow=classic;html=1;rounded=0;" parent="1" source="lJbvdJSCI-_qhn2ZmLNF-4" target="lJbvdJSCI-_qhn2ZmLNF-3" edge="1">
          <mxGeometry width="50" height="50" relative="1" as="geometry">
            <mxPoint x="398" y="431" as="sourcePoint" />
            <mxPoint x="532" y="359" as="targetPoint" />
          </mxGeometry>
        </mxCell>
        <mxCell id="lJbvdJSCI-_qhn2ZmLNF-24" value="&lt;font style=&quot;font-size: 22px;&quot;&gt;2&lt;/font&gt;" style="edgeLabel;html=1;align=center;verticalAlign=middle;resizable=0;points=[];" parent="lJbvdJSCI-_qhn2ZmLNF-23" vertex="1" connectable="0">
          <mxGeometry x="-0.3107" y="-3" relative="1" as="geometry">
            <mxPoint as="offset" />
          </mxGeometry>
        </mxCell>
        <mxCell id="lJbvdJSCI-_qhn2ZmLNF-33" value="TEST_TREE_NODES" style="text;html=1;strokeColor=none;fillColor=none;align=center;verticalAlign=middle;whiteSpace=wrap;rounded=0;" parent="1" vertex="1">
          <mxGeometry x="110" y="70" width="150" height="30" as="geometry" />
        </mxCell>
        <mxCell id="lJbvdJSCI-_qhn2ZmLNF-34" value="&lt;font style=&quot;font-size: 22px;&quot;&gt;S&lt;/font&gt;" style="ellipse;whiteSpace=wrap;html=1;aspect=fixed;" parent="1" vertex="1">
          <mxGeometry x="320" y="560" width="40" height="40" as="geometry" />
        </mxCell>
        <mxCell id="lJbvdJSCI-_qhn2ZmLNF-35" value="&lt;font style=&quot;font-size: 22px;&quot;&gt;E&lt;/font&gt;" style="ellipse;whiteSpace=wrap;html=1;aspect=fixed;" parent="1" vertex="1">
          <mxGeometry x="220" y="640" width="40" height="40" as="geometry" />
        </mxCell>
        <mxCell id="lJbvdJSCI-_qhn2ZmLNF-36" value="&lt;font style=&quot;font-size: 22px;&quot;&gt;A&lt;/font&gt;" style="ellipse;whiteSpace=wrap;html=1;aspect=fixed;" parent="1" vertex="1">
          <mxGeometry x="480" y="650" width="40" height="40" as="geometry" />
        </mxCell>
        <mxCell id="lJbvdJSCI-_qhn2ZmLNF-40" value="" style="endArrow=classic;html=1;rounded=0;" parent="1" source="lJbvdJSCI-_qhn2ZmLNF-34" target="lJbvdJSCI-_qhn2ZmLNF-35" edge="1">
          <mxGeometry width="50" height="50" relative="1" as="geometry">
            <mxPoint x="750" y="1070" as="sourcePoint" />
            <mxPoint x="800" y="1020" as="targetPoint" />
          </mxGeometry>
        </mxCell>
        <mxCell id="lJbvdJSCI-_qhn2ZmLNF-41" value="&lt;font style=&quot;font-size: 22px;&quot;&gt;8&lt;/font&gt;" style="edgeLabel;html=1;align=center;verticalAlign=middle;resizable=0;points=[];" parent="lJbvdJSCI-_qhn2ZmLNF-40" vertex="1" connectable="0">
          <mxGeometry x="-0.3107" y="-3" relative="1" as="geometry">
            <mxPoint as="offset" />
          </mxGeometry>
        </mxCell>
        <mxCell id="lJbvdJSCI-_qhn2ZmLNF-42" value="" style="endArrow=classic;html=1;rounded=0;" parent="1" source="lJbvdJSCI-_qhn2ZmLNF-34" target="lJbvdJSCI-_qhn2ZmLNF-36" edge="1">
          <mxGeometry width="50" height="50" relative="1" as="geometry">
            <mxPoint x="340" y="577" as="sourcePoint" />
            <mxPoint x="214" y="676" as="targetPoint" />
          </mxGeometry>
        </mxCell>
        <mxCell id="lJbvdJSCI-_qhn2ZmLNF-43" value="&lt;font style=&quot;font-size: 22px;&quot;&gt;10&lt;/font&gt;" style="edgeLabel;html=1;align=center;verticalAlign=middle;resizable=0;points=[];" parent="lJbvdJSCI-_qhn2ZmLNF-42" vertex="1" connectable="0">
          <mxGeometry x="-0.3107" y="-3" relative="1" as="geometry">
            <mxPoint as="offset" />
          </mxGeometry>
        </mxCell>
        <mxCell id="lJbvdJSCI-_qhn2ZmLNF-62" value="TEST_TREE_NODES_2" style="text;html=1;strokeColor=none;fillColor=none;align=center;verticalAlign=middle;whiteSpace=wrap;rounded=0;" parent="1" vertex="1">
          <mxGeometry x="120" y="550" width="150" height="30" as="geometry" />
        </mxCell>
        <mxCell id="lJbvdJSCI-_qhn2ZmLNF-65" value="" style="edgeStyle=none;orthogonalLoop=1;jettySize=auto;html=1;rounded=0;" parent="1" source="lJbvdJSCI-_qhn2ZmLNF-35" target="lJbvdJSCI-_qhn2ZmLNF-36" edge="1">
          <mxGeometry width="100" relative="1" as="geometry">
            <mxPoint x="320" y="700" as="sourcePoint" />
            <mxPoint x="420" y="700" as="targetPoint" />
            <Array as="points" />
          </mxGeometry>
        </mxCell>
        <mxCell id="lJbvdJSCI-_qhn2ZmLNF-66" value="-10" style="edgeLabel;html=1;align=center;verticalAlign=middle;resizable=0;points=[];" parent="lJbvdJSCI-_qhn2ZmLNF-65" vertex="1" connectable="0">
          <mxGeometry x="-0.1301" y="3" relative="1" as="geometry">
            <mxPoint as="offset" />
          </mxGeometry>
        </mxCell>
        <mxCell id="lJbvdJSCI-_qhn2ZmLNF-67" value="S:B&lt;br&gt;8" style="text;html=1;strokeColor=none;fillColor=none;align=center;verticalAlign=middle;whiteSpace=wrap;rounded=0;" parent="1" vertex="1">
          <mxGeometry x="260" y="710" width="60" height="30" as="geometry" />
        </mxCell>
        <mxCell id="lJbvdJSCI-_qhn2ZmLNF-68" value="S:A&lt;br&gt;-2" style="text;html=1;strokeColor=none;fillColor=none;align=center;verticalAlign=middle;whiteSpace=wrap;rounded=0;" parent="1" vertex="1">
          <mxGeometry x="360" y="710" width="60" height="30" as="geometry" />
        </mxCell>
        <mxCell id="lJbvdJSCI-_qhn2ZmLNF-82" value="S:S&lt;br&gt;0" style="text;html=1;align=center;verticalAlign=middle;resizable=0;points=[];autosize=1;strokeColor=none;fillColor=none;" parent="1" vertex="1">
          <mxGeometry x="190" y="440" width="40" height="40" as="geometry" />
        </mxCell>
        <mxCell id="lJbvdJSCI-_qhn2ZmLNF-83" value="S:A&lt;br&gt;5" style="text;html=1;align=center;verticalAlign=middle;resizable=0;points=[];autosize=1;strokeColor=none;fillColor=none;" parent="1" vertex="1">
          <mxGeometry x="250" y="440" width="40" height="40" as="geometry" />
        </mxCell>
        <mxCell id="lJbvdJSCI-_qhn2ZmLNF-84" value="S:B&lt;br&gt;5" style="text;html=1;align=center;verticalAlign=middle;resizable=0;points=[];autosize=1;strokeColor=none;fillColor=none;" parent="1" vertex="1">
          <mxGeometry x="310" y="440" width="40" height="40" as="geometry" />
        </mxCell>
        <mxCell id="lJbvdJSCI-_qhn2ZmLNF-85" value="S:C&lt;br&gt;7" style="text;html=1;align=center;verticalAlign=middle;resizable=0;points=[];autosize=1;strokeColor=none;fillColor=none;" parent="1" vertex="1">
          <mxGeometry x="370" y="440" width="40" height="40" as="geometry" />
        </mxCell>
        <mxCell id="lJbvdJSCI-_qhn2ZmLNF-86" value="S:D&lt;br&gt;9" style="text;html=1;align=center;verticalAlign=middle;resizable=0;points=[];autosize=1;strokeColor=none;fillColor=none;" parent="1" vertex="1">
          <mxGeometry x="430" y="440" width="40" height="40" as="geometry" />
        </mxCell>
        <mxCell id="lJbvdJSCI-_qhn2ZmLNF-87" value="S:E&lt;br&gt;8" style="text;html=1;align=center;verticalAlign=middle;resizable=0;points=[];autosize=1;strokeColor=none;fillColor=none;" parent="1" vertex="1">
          <mxGeometry x="490" y="440" width="40" height="40" as="geometry" />
        </mxCell>
      </root>
    </mxGraphModel>
  </diagram>
</mxfile>
